<svg width="19" height="21" viewBox="0 0 19 21" fill="none" xmlns="http://www.w3.org/2000/svg">
<path d="M16.4998 20.1199H2.47984C2.12984 20.1199 1.83984 19.8399 1.83984 19.4799V5.45995C1.83984 5.10995 2.11984 4.81995 2.47984 4.81995H16.4998C16.8498 4.81995 17.1398 5.09995 17.1398 5.45995V19.4799C17.1398 19.8299 16.8498 20.1199 16.4998 20.1199Z" fill="url(#paint0_linear_21054_1454)"/>
<path d="M17.9602 13.78L5.09017 3.28002C4.63017 2.90002 4.89017 2.15002 5.49017 2.15002H18.3602C18.7102 2.15002 19.0002 2.43002 19.0002 2.79002V13.3C19.0002 13.83 18.3802 14.12 17.9602 13.78Z" fill="url(#paint1_linear_21054_1454)"/>
<path d="M1.04 11.64L13.91 1.13C14.37 0.75 14.11 0 13.51 0H0.64C0.29 0 0 0.28 0 0.64V11.15C0 11.68 0.62 11.98 1.04 11.64Z" fill="url(#paint2_linear_21054_1454)"/>
<defs>
<linearGradient id="paint0_linear_21054_1454" x1="1.84182" y1="12.4712" x2="17.1375" y2="12.4712" gradientUnits="userSpaceOnUse">
<stop stop-color="#FF9868"/>
<stop offset="1" stop-color="#FF5403"/>
</linearGradient>
<linearGradient id="paint1_linear_21054_1454" x1="4.85294" y1="8.0392" x2="19.0002" y2="8.0392" gradientUnits="userSpaceOnUse">
<stop stop-color="#03FFE5"/>
<stop offset="1" stop-color="#14B348"/>
</linearGradient>
<linearGradient id="paint2_linear_21054_1454" x1="0" y1="5.8919" x2="14.1472" y2="5.8919" gradientUnits="userSpaceOnUse">
<stop stop-color="#FCFF1C"/>
<stop offset="1" stop-color="#FF9D0A"/>
</linearGradient>
</defs>
</svg>
